# File created by Blade
# Date/Time:  Thu Jan 22 15:50:06 2015
#---------------------------------------------------------
:version 1.10
:name HOM
:units
  mass 1.0
  length 1.000000
  angle deg
:documentation
     Acclaim Skeleton File
:root
   axis xyz
   order TX TY TZ RX RY RZ
   position 0.000000 0.000000 0.000000
   orientation 0 0 0
:bonedata
   begin
      id 1
      name RightUpLeg_dum
      direction -1.000000 0.000000 0.000000
      length 3.766986
      axis 0.0 0.0 0.0 xyz
   end
   begin
      id 2
      name LeftUpLeg_dum
      direction 1.000000 0.000000 0.000000
      length 3.766986
      axis 0.0 0.0 0.0 xyz
   end
   begin
      id 3
      name Spine_dum
      direction 0.000000 1.000000 0.000000
      length 7.779697
      axis 0.0 0.0 0.0 xyz
   end
   begin
      id 4
      name RightUpLeg
      direction 0.000000 -1.000000 0.000000
      length 18.017682
      axis 0.0 0.0 0.0 xyz
      dof rx ry rz
   end
   begin
      id 5
      name RightLeg
      direction 0.000000 -1.000000 0.000000
      length 16.881075
      axis 0.0 0.0 0.0 xyz
      dof rx ry rz
   end
   begin
      id 6
      name RightFoot
      direction 0.000000 -0.258819 0.965926
      length 5.770812
      axis 15.0 0.0 0.0 xyz
      dof rx ry rz
   end
   begin
      id 7
      name RightToeBase
      direction 0.000000 0.000000 1.000000
      length 2.952750
      axis 0.0 0.0 0.0 xyz
      dof rx ry rz
   end
   begin
      id 8
      name LeftUpLeg
      direction 0.000000 -1.000000 0.000000
      length 18.017682
      axis 0.0 0.0 0.0 xyz
      dof rx ry rz
   end
   begin
      id 9
      name LeftLeg
      direction 0.000000 -1.000000 0.000000
      length 16.881075
      axis 0.0 0.0 0.0 xyz
      dof rx ry rz
   end
   begin
      id 10
      name LeftFoot
      direction 0.000000 -0.258819 0.965926
      length 5.770812
      axis 15.0 0.0 0.0 xyz
      dof rx ry rz
   end
   begin
      id 11
      name LeftToeBase
      direction 0.000000 0.000000 1.000000
      length 2.952750
      axis 0.0 0.0 0.0 xyz
      dof rx ry rz
   end
   begin
      id 12
      name Spine
      direction 0.000000 1.000000 0.000000
      length 0.000000
      axis 0.0 0.0 0.0 xyz
      dof rx ry rz
   end
   begin
      id 13
      name Spine_dum1
      direction 0.000000 1.000000 0.000000
      length 10.941760
      axis 0.0 0.0 0.0 xyz
   end
   begin
      id 14
      name Spine_dum2
      direction 0.000000 1.000000 0.000000
      length 10.941760
      axis 0.0 0.0 0.0 xyz
   end
   begin
      id 15
      name Spine_dum3
      direction 0.000000 1.000000 0.000000
      length 16.646042
      axis 0.0 0.0 0.0 xyz
   end
   begin
      id 16
      name RightShoulder
      direction -1.000000 0.000000 0.000000
      length 7.708937
      axis 0.0 0.0 90.0 xyz
      dof rx ry rz
   end
   begin
      id 17
      name RightArm
      direction -1.000000 0.000000 0.000000
      length 11.521345
      axis 0.0 0.0 90.0 xyz
      dof rx ry rz
   end
   begin
      id 18
      name RightForeArm
      direction -1.000000 0.000000 0.000000
      length 10.175898
      axis 0.0 0.0 90.0 xyz
      dof ry rz rx
   end
   begin
      id 19
      name RightHand
      direction -1.000000 0.000000 0.000000
      length 0.000000
      axis 0.0 0.0 90.0 xyz
      dof rx ry rz
   end
   begin
      id 20
      name RightHand_dum1
      direction -1.000000 0.000000 0.000000
      length 3.937000
      axis 0.0 0.0 90.0 xyz
   end
   begin
      id 21
      name RightHand_dum2
      direction 0.000000 0.000000 0.000000
      length 0.000000
      axis 0.0 0.0 90.0 xyz
   end
   begin
      id 22
      name RightHandThumb1
      direction 0.000000 0.000000 1.000000
      length 3.937000
      axis 0.0 0.0 90.0 xyz
      dof rx rz ry
   end
   begin
      id 23
      name LeftShoulder
      direction 1.000000 0.000000 0.000000
      length 7.708937
      axis 0.0 0.0 -90.0 xyz
      dof rx ry rz
   end
   begin
      id 24
      name LeftArm
      direction 1.000000 0.000000 0.000000
      length 11.521345
      axis 0.0 0.0 -90.0 xyz
      dof rx ry rz
   end
   begin
      id 25
      name LeftForeArm
      direction 1.000000 0.000000 0.000000
      length 10.175898
      axis 0.0 0.0 -90.0 xyz
      dof ry rz rx
   end
   begin
      id 26
      name LeftHand
      direction 1.000000 0.000000 0.000000
      length 0.000000
      axis 0.0 0.0 -90.0 xyz
      dof rx ry rz
   end
   begin
      id 27
      name LeftHand_dum1
      direction 1.000000 0.000000 0.000000
      length 3.937000
      axis 0.0 0.0 -90.0 xyz
   end
   begin
      id 28
      name LeftHand_dum2
      direction 0.000000 0.000000 0.000000
      length 0.000000
      axis 0.0 0.0 -90.0 xyz
   end
   begin
      id 29
      name LeftHandThumb1
      direction 0.000000 0.000000 1.000000
      length 3.937000
      axis 0.0 0.0 -90.0 xyz
      dof rx rz ry
   end
   begin
      id 30
      name Head
      direction 0.000000 1.000000 0.000000
      length 4.527550
      axis 0.0 0.0 0.0 xyz
      dof rx ry rz
   end
:hierarchy
   begin
      root RightUpLeg_dum LeftUpLeg_dum Spine_dum
      RightUpLeg_dum RightUpLeg
      LeftUpLeg_dum LeftUpLeg
      Spine_dum Spine
      RightUpLeg RightLeg
      RightLeg RightFoot
      RightFoot RightToeBase
      LeftUpLeg LeftLeg
      LeftLeg LeftFoot
      LeftFoot LeftToeBase
      Spine Spine_dum1 Spine_dum2 Spine_dum3
      Spine_dum1 RightShoulder
      Spine_dum2 LeftShoulder
      Spine_dum3 Head
      RightShoulder RightArm
      RightArm RightForeArm
      RightForeArm RightHand
      RightHand RightHand_dum1 RightHand_dum2
      RightHand_dum2 RightHandThumb1
      LeftShoulder LeftArm
      LeftArm LeftForeArm
      LeftForeArm LeftHand
      LeftHand LeftHand_dum1 LeftHand_dum2
      LeftHand_dum2 LeftHandThumb1
   end

# File created by Blade
# Date/Time:  Thu Jan 22 15:49:58 2015
# Frame Rate: 120.000 fps
#------------------------------------------------------
:FULLY-SPECIFIED
:DEGREES
69
root 3.191684 37.029543 5.007086 -6.307471 -2.805579 2.532112
RightUpLeg 14.429394 -6.079850 -5.977014
RightLeg -4.853576 -0.000000 0.000000
RightFoot -12.457531 -12.414487 16.628970
RightToeBase 14.738086 -0.000000 -0.000000
LeftUpLeg 12.845535 5.067960 1.963834
LeftLeg -2.043430 -0.000000 0.000000
LeftFoot -8.254968 8.150853 -16.341031
LeftToeBase 8.326789 -0.000000 -0.000000
Spine 10.189531 -2.893310 -4.307556
RightShoulder -1.633200 -12.037863 -27.842420
RightArm 8.918858 27.473633 30.536039
RightForeArm 4.003354 0.000000 16.859918
RightHand 2.680253 -0.000000 6.379651
RightHandThumb1 -24.326973 -0.000000 -32.862282
LeftShoulder -21.993927 33.089815 16.527211
LeftArm 40.329528 -45.884850 -50.014108
LeftForeArm 36.120659 0.000000 7.591566
LeftHand -15.166622 -0.000000 -9.332489
LeftHandThumb1 -26.253704 0.000000 33.147579
Head -1.575229 13.489463 4.376127
70
root 3.192220 37.029731 5.007437 -6.307695 -2.803646 2.531229
RightUpLeg 14.432372 -6.070207 -5.982085
RightLeg -4.850803 -0.000000 0.000000
RightFoot -12.469919 -12.403786 16.665520
RightToeBase 14.777762 -0.000000 -0.000000
LeftUpLeg 12.848179 5.066990 1.963934
LeftLeg -2.048363 -0.000000 0.000000
LeftFoot -8.256774 8.154138 -16.333955
LeftToeBase 8.306990 -0.000000 -0.000000
Spine 10.189268 -2.898047 -4.305562
RightShoulder -1.630142 -11.997948 -27.836038
RightArm 8.882943 27.485832 30.519605
RightForeArm 3.994332 0.000000 16.895266
RightHand 2.652996 -0.000000 6.444823
RightHandThumb1 -24.326973 -0.000000 -32.862282
LeftShoulder -21.996398 33.079511 16.523450
LeftArm 40.323552 -45.893890 -50.011378
LeftForeArm 36.128282 -0.000000 7.588199
LeftHand -15.153167 -0.000000 -9.291821
LeftHandThumb1 -26.253704 0.000000 33.147579
Head -1.598267 13.508856 4.368412
71
root 3.192233 37.029471 5.007624 -6.311356 -2.807093 2.529686
RightUpLeg 14.434708 -6.072043 -5.978008
RightLeg -4.850952 -0.000000 0.000000
RightFoot -12.461604 -12.425843 16.656508
RightToeBase 14.726904 -0.000000 -0.000000
LeftUpLeg 12.854386 5.074830 1.973063
LeftLeg -2.052691 -0.000000 0.000000
LeftFoot -8.241065 8.119829 -16.318785
LeftToeBase 8.296164 -0.000000 -0.000000
Spine 10.192252 -2.888104 -4.305110
RightShoulder -1.641531 -12.031109 -27.832319
RightArm 8.904178 27.513460 30.526443
RightForeArm 3.963696 -0.000000 16.918657
RightHand 2.640019 0.000000 6.448478
RightHandThumb1 -24.326973 -0.000000 -32.862282
LeftShoulder -22.001202 33.093489 16.524310
LeftArm 40.352487 -45.910007 -50.040039
LeftForeArm 36.154496 -0.000000 7.594239
LeftHand -15.140420 0.000000 -9.304145
LeftHandThumb1 -26.253704 0.000000 33.147579
Head -1.616003 13.497299 4.368946
72
root 3.192324 37.029249 5.007903 -6.311778 -2.807834 2.527948
RightUpLeg 14.434301 -6.069976 -5.972269
RightLeg -4.855228 -0.000000 0.000000
RightFoot -12.456458 -12.420858 16.629768
RightToeBase 14.732716 -0.000000 -0.000000
LeftUpLeg 12.857253 5.071537 1.968136
LeftLeg -2.056280 -0.000000 0.000000
LeftFoot -8.250303 8.157922 -16.332234
LeftToeBase 8.300834 -0.000000 -0.000000
Spine 10.188519 -2.888572 -4.307042
RightShoulder -1.641887 -12.012904 -27.829982
RightArm 8.896854 27.490526 30.518893
RightForeArm 3.965713 -0.000000 16.930920
RightHand 2.616743 -0.000000 6.467109
RightHandThumb1 -24.326973 -0.000000 -32.862282
LeftShoulder -22.001037 33.076954 16.539335
LeftArm 40.338997 -45.904461 -50.036436
LeftForeArm 36.174060 -0.000000 7.592216
LeftHand -15.123490 0.000000 -9.319093
LeftHandThumb1 -26.253704 0.000000 33.147579
Head -1.624230 13.488715 4.381133
73
root 3.191988 37.029233 5.008225 -6.314059 -2.805193 2.523147
RightUpLeg 14.440412 -6.068389 -5.966865
RightLeg -4.860287 -0.000000 0.000000
RightFoot -12.460686 -12.424333 16.649826
RightToeBase 14.736777 -0.000000 -0.000000
LeftUpLeg 12.860160 5.073075 1.980392
LeftLeg -2.056118 -0.000000 0.000000
LeftFoot -8.242544 8.117837 -16.298433
LeftToeBase 8.310326 -0.000000 -0.000000
Spine 10.187100 -2.894639 -4.305713
RightShoulder -1.643747 -12.026578 -27.826707
RightArm 8.916090 27.494469 30.521668
RightForeArm 3.982057 -0.000000 16.933053
RightHand 2.624746 -0.000000 6.488980
RightHandThumb1 -24.326973 -0.000000 -32.862282
LeftShoulder -22.005229 33.090480 16.543105
LeftArm 40.346132 -45.916043 -50.052759
LeftForeArm 36.177702 -0.000000 7.599286
LeftHand -15.087088 0.000000 -9.328238
LeftHandThumb1 -26.253704 0.000000 33.147579
Head -1.632212 13.480510 4.394069
74
root 3.192588 37.029068 5.008704 -6.314907 -2.805590 2.524300
RightUpLeg 14.441655 -6.066707 -5.968307
RightLeg -4.860036 -0.000000 0.000000
RightFoot -12.453488 -12.434267 16.629668
RightToeBase 14.711747 -0.000000 -0.000000
LeftUpLeg 12.863279 5.067128 1.978120
LeftLeg -2.058647 -0.000000 0.000000
LeftFoot -8.245698 8.113603 -16.325410
LeftToeBase 8.340035 -0.000000 -0.000000
Spine 10.185905 -2.896268 -4.307163
RightShoulder -1.651393 -12.016752 -27.833917
RightArm 8.929320 27.459985 30.525396
RightForeArm 4.005918 -0.000000 16.925014
RightHand 2.640583 -0.000000 6.479212
RightHandThumb1 -24.326973 -0.000000 -32.862282
LeftShoulder -22.009747 33.090319 16.547837
LeftArm 40.334177 -45.912090 -50.050982
LeftForeArm 36.191071 -0.000000 7.616916
LeftHand -15.082282 0.000000 -9.367662
LeftHandThumb1 -26.253704 0.000000 33.147579
Head -1.643761 13.488238 4.402042
75
root 3.192819 37.028776 5.009004 -6.318370 -2.803845 2.524406
RightUpLeg 14.446456 -6.073981 -5.970308
RightLeg -4.860364 -0.000000 0.000000
RightFoot -12.452117 -12.430609 16.609958
RightToeBase 14.698755 -0.000000 -0.000000
LeftUpLeg 12.868152 5.065190 1.976986
LeftLeg -2.062370 -0.000000 0.000000
LeftFoot -8.245500 8.128287 -16.306350
LeftToeBase 8.290043 -0.000000 -0.000000
Spine 10.183377 -2.897503 -4.309985
RightShoulder -1.645968 -12.027700 -27.836090
RightArm 8.933763 27.459441 30.529567
RightForeArm 4.014398 -0.000000 16.930707
RightHand 2.636567 -0.000000 6.467421
RightHandThumb1 -24.326973 -0.000000 -32.862282
LeftShoulder -22.001809 33.084488 16.567143
LeftArm 40.313383 -45.902429 -50.042973
LeftForeArm 36.186123 -0.000000 7.622184
LeftHand -15.077850 -0.000000 -9.392168
LeftHandThumb1 -26.253704 0.000000 33.147579
Head -1.644992 13.466337 4.413895
76
root 3.193614 37.028567 5.009358 -6.318903 -2.805148 2.526108
RightUpLeg 14.449382 -6.071222 -5.977322
RightLeg -4.856467 -0.000000 0.000000
RightFoot -12.471121 -12.424798 16.655232
RightToeBase 14.766375 -0.000000 -0.000000
LeftUpLeg 12.869971 5.062523 1.973113
LeftLeg -2.061526 -0.000000 0.000000
LeftFoot -8.255410 8.127714 -16.323625
LeftToeBase 8.354336 -0.000000 -0.000000
Spine 10.180287 -2.897214 -4.311058
RightShoulder -1.652904 -12.046138 -27.835556
RightArm 8.959929 27.477338 30.542453
RightForeArm 3.988689 -0.000000 16.935276
RightHand 2.627935 -0.000000 6.477371
RightHandThumb1 -24.326973 -0.000000 -32.862282
LeftShoulder -22.018368 33.099300 16.554662
LeftArm 40.341802 -45.905131 -50.049271
LeftForeArm 36.195131 -0.000000 7.609871
LeftHand -15.059848 -0.000000 -9.391357
LeftHandThumb1 -26.253704 0.000000 33.147579
Head -1.657164 13.470388 4.423865
77
root 3.194089 37.028473 5.009794 -6.321556 -2.805151 2.526005
RightUpLeg 14.452550 -6.065954 -5.977820
RightLeg -4.857957 -0.000000 0.000000
RightFoot -12.467882 -12.433576 16.648508
RightToeBase 14.759966 -0.000000 -0.000000
LeftUpLeg 12.870856 5.068562 1.974358
LeftLeg -2.058062 -0.000000 0.000000
LeftFoot -8.249088 8.125279 -16.309359
LeftToeBase 8.275424 -0.000000 -0.000000
Spine 10.178778 -2.893839 -4.310732
RightShoulder -1.656562 -12.031015 -27.833669
RightArm 8.958504 27.459685 30.540476
RightForeArm 3.984106 -0.000000 16.934723
RightHand 2.621672 -0.000000 6.466111
RightHandThumb1 -24.326973 -0.000000 -32.862282
LeftShoulder -22.018618 33.112405 16.557257
LeftArm 40.360384 -45.914856 -50.069103
LeftForeArm 36.191968 -0.000000 7.615096
LeftHand -15.075106 -0.000000 -9.390119
LeftHandThumb1 -26.253704 0.000000 33.147579
Head -1.661353 13.466428 4.433430
78
root 3.194970 37.028510 5.010097 -6.325217 -2.806927 2.531308
RightUpLeg 14.456004 -6.067836 -5.986376
RightLeg -4.855563 -0.000000 0.000000
RightFoot -12.469347 -12.420877 16.644175
RightToeBase 14.716331 -0.000000 -0.000000
LeftUpLeg 12.874388 5.058772 1.966138
LeftLeg -2.057367 -0.000000 0.000000
LeftFoot -8.255015 8.139623 -16.308013
LeftToeBase 8.303599 -0.000000 -0.000000
Spine 10.179202 -2.887905 -4.316919
RightShoulder -1.654390 -12.015739 -27.832917
RightArm 8.947433 27.455278 30.541110
RightForeArm 3.978579 -0.000000 16.943897
RightHand 2.623636 -0.000000 6.425985
RightHandThumb1 -24.326973 -0.000000 -32.862282
LeftShoulder -22.006861 33.092668 16.574437
LeftArm 40.332314 -45.904330 -50.046595
LeftForeArm 36.192141 -0.000000 7.609831
LeftHand -15.067141 -0.000000 -9.399754
LeftHandThumb1 -26.253704 0.000000 33.147579
Head -1.666500 13.453409 4.437712
79
root 3.195132 37.028746 5.010917 -6.329933 -2.805497 2.522463
RightUpLeg 14.455624 -6.086760 -5.977179
RightLeg -4.845801 -0.000000 0.000000
RightFoot -12.478017 -12.424963 16.652254
RightToeBase 14.792419 -0.000000 -0.000000
LeftUpLeg 12.880456 5.054146 1.974221
LeftLeg -2.055847 -0.000000 0.000000
LeftFoot -8.258199 8.136355 -16.308343
LeftToeBase 8.304312 -0.000000 -0.000000
Spine 10.182151 -2.892439 -4.303422
RightShoulder -1.666324 -12.021654 -27.836309
RightArm 8.980524 27.450859 30.558098
RightForeArm 4.008171 -0.000000 16.925860
RightHand 2.655728 0.000000 6.368703
RightHandThumb1 -24.326973 -0.000000 -32.862282
LeftShoulder -22.015803 33.088286 16.566037
LeftArm 40.331579 -45.894092 -50.037198
LeftForeArm 36.183682 -0.000000 7.607857
LeftHand -15.085650 -0.000000 -9.377336
LeftHandThumb1 -26.253704 0.000000 33.147579
Head -1.681334 13.469598 4.431933
80
root 3.196658 37.028500 5.010553 -6.326799 -2.809811 2.535715
RightUpLeg 14.454989 -6.059480 -5.991363
RightLeg -4.852889 -0.000000 0.000000
RightFoot -12.496672 -12.416850 16.694803
RightToeBase 14.805659 -0.000000 -0.000000
LeftUpLeg 12.876012 5.057243 1.952816
LeftLeg -2.051982 -0.000000 0.000000
LeftFoot -8.271843 8.152958 -16.363365
LeftToeBase 8.358088 -0.000000 -0.000000
Spine 10.172815 -2.885580 -4.316535
RightShoulder -1.659175 -12.005953 -27.841622
RightArm 8.963466 27.471699 30.575349
RightForeArm 3.976823 -0.000000 16.947197
RightHand 2.661387 0.000000 6.310451
RightHandThumb1 -24.326973 -0.000000 -32.862282
LeftShoulder -22.018074 33.098299 16.560224
LeftArm 40.342704 -45.908086 -50.037699
LeftForeArm 36.201990 -0.000000 7.609854
LeftHand -15.078727 -0.000000 -9.407487
LeftHandThumb1 -26.253704 0.000000 33.147579
Head -1.684876 13.458331 4.439419
